<svg width="29" height="29" viewBox="0 0 29 29" fill="none" xmlns="http://www.w3.org/2000/svg">
<path d="M6.87524 12.272C7.96326 8.9751 11.0615 6.6073 14.7314 6.6073C16.7041 6.6073 18.4859 7.3073 19.8859 8.45276L23.9587 4.38002C21.4768 2.21637 18.295 0.880005 14.7314 0.880005C9.21309 0.880005 4.46204 4.02803 2.17798 8.63839L6.87524 12.272Z" fill="#EA4335"/>
<path d="M19.4457 21.8945C18.1742 22.7155 16.5586 23.1526 14.7315 23.1526C11.0757 23.1526 7.98712 20.8029 6.88796 17.5257L2.17517 21.104C4.45639 25.7224 9.20732 28.8799 14.7315 28.8799C18.1532 28.8799 21.4228 27.6635 23.8714 25.3794L19.4457 21.8945Z" fill="#34A853"/>
<path d="M23.8712 25.3794C26.4321 22.9907 28.095 19.4342 28.095 14.8799C28.095 14.0526 27.9677 13.1617 27.7768 12.3344H14.7313V17.7435H22.2404C21.8699 19.5625 20.8754 20.9713 19.4455 21.8946L23.8712 25.3794Z" fill="#4A90E2"/>
<path d="M6.88794 17.5261C6.60951 16.6959 6.45874 15.8063 6.45874 14.8802C6.45874 13.9682 6.60497 13.0915 6.87536 12.2722L2.17811 8.63855C1.2408 10.5174 0.731445 12.6348 0.731445 14.8802C0.731445 17.1197 1.25036 19.2321 2.17516 21.1044L6.88794 17.5261Z" fill="#FBBC05"/>
</svg>
